<mxfile host="app.diagrams.net" modified="2024-03-24T22:56:38.655Z" agent="Mozilla/5.0 (Windows NT 10.0; Win64; x64) AppleWebKit/537.36 (KHTML, like Gecko) Chrome/122.0.0.0 Safari/537.36" etag="9ZDeQ_h1Mrlbgeg96HK_" version="23.1.6" type="github">
  <diagram name="Page-1" id="S9bTzeIY_3I-V9q9KqN_">
    <mxGraphModel dx="988" dy="543" grid="1" gridSize="10" guides="1" tooltips="1" connect="1" arrows="1" fold="1" page="1" pageScale="1" pageWidth="850" pageHeight="1100" math="0" shadow="0">
      <root>
        <mxCell id="0" />
        <mxCell id="1" parent="0" />
        <mxCell id="8ubV7WEkDpMe8fplMi-N-12" style="edgeStyle=orthogonalEdgeStyle;rounded=0;orthogonalLoop=1;jettySize=auto;html=1;exitX=1;exitY=0.5;exitDx=0;exitDy=0;entryX=0;entryY=0.5;entryDx=0;entryDy=0;startArrow=classic;startFill=1;" edge="1" parent="1" source="8ubV7WEkDpMe8fplMi-N-1" target="8ubV7WEkDpMe8fplMi-N-2">
          <mxGeometry relative="1" as="geometry" />
        </mxCell>
        <mxCell id="8ubV7WEkDpMe8fplMi-N-1" value="zCCM" style="rounded=0;whiteSpace=wrap;html=1;" vertex="1" parent="1">
          <mxGeometry x="360" y="260" width="120" height="60" as="geometry" />
        </mxCell>
        <mxCell id="8ubV7WEkDpMe8fplMi-N-13" style="edgeStyle=orthogonalEdgeStyle;rounded=0;orthogonalLoop=1;jettySize=auto;html=1;exitX=1;exitY=0.5;exitDx=0;exitDy=0;entryX=0;entryY=0.5;entryDx=0;entryDy=0;" edge="1" parent="1" source="8ubV7WEkDpMe8fplMi-N-2" target="8ubV7WEkDpMe8fplMi-N-3">
          <mxGeometry relative="1" as="geometry" />
        </mxCell>
        <mxCell id="8ubV7WEkDpMe8fplMi-N-2" value="V2 Backplane" style="rounded=0;whiteSpace=wrap;html=1;" vertex="1" parent="1">
          <mxGeometry x="552" y="260" width="120" height="60" as="geometry" />
        </mxCell>
        <mxCell id="8ubV7WEkDpMe8fplMi-N-14" value="2x 5 GHz Optical" style="edgeStyle=orthogonalEdgeStyle;rounded=0;orthogonalLoop=1;jettySize=auto;html=1;exitX=0.5;exitY=1;exitDx=0;exitDy=0;entryX=1;entryY=0.5;entryDx=0;entryDy=0;" edge="1" parent="1" source="8ubV7WEkDpMe8fplMi-N-3" target="8ubV7WEkDpMe8fplMi-N-4">
          <mxGeometry x="0.3396" y="10" relative="1" as="geometry">
            <mxPoint as="offset" />
          </mxGeometry>
        </mxCell>
        <mxCell id="8ubV7WEkDpMe8fplMi-N-3" value="6 channel RM" style="rounded=0;whiteSpace=wrap;html=1;" vertex="1" parent="1">
          <mxGeometry x="712" y="260" width="120" height="60" as="geometry" />
        </mxCell>
        <mxCell id="8ubV7WEkDpMe8fplMi-N-11" style="edgeStyle=orthogonalEdgeStyle;rounded=0;orthogonalLoop=1;jettySize=auto;html=1;exitX=0;exitY=0.5;exitDx=0;exitDy=0;entryX=1;entryY=0.75;entryDx=0;entryDy=0;startArrow=classic;startFill=1;" edge="1" parent="1" source="8ubV7WEkDpMe8fplMi-N-4" target="8ubV7WEkDpMe8fplMi-N-8">
          <mxGeometry relative="1" as="geometry" />
        </mxCell>
        <mxCell id="8ubV7WEkDpMe8fplMi-N-17" value="LDMX FC" style="edgeStyle=orthogonalEdgeStyle;rounded=0;orthogonalLoop=1;jettySize=auto;html=1;exitX=0.25;exitY=0;exitDx=0;exitDy=0;entryX=0;entryY=0.75;entryDx=0;entryDy=0;" edge="1" parent="1" source="8ubV7WEkDpMe8fplMi-N-4" target="8ubV7WEkDpMe8fplMi-N-1">
          <mxGeometry relative="1" as="geometry" />
        </mxCell>
        <mxCell id="8ubV7WEkDpMe8fplMi-N-4" value="APd1" style="rounded=0;whiteSpace=wrap;html=1;" vertex="1" parent="1">
          <mxGeometry x="520" y="370" width="120" height="60" as="geometry" />
        </mxCell>
        <mxCell id="8ubV7WEkDpMe8fplMi-N-7" value="Computer" style="rounded=0;whiteSpace=wrap;html=1;" vertex="1" parent="1">
          <mxGeometry x="30" y="265" width="90" height="180" as="geometry" />
        </mxCell>
        <mxCell id="8ubV7WEkDpMe8fplMi-N-10" style="edgeStyle=orthogonalEdgeStyle;rounded=0;orthogonalLoop=1;jettySize=auto;html=1;exitX=1;exitY=0.25;exitDx=0;exitDy=0;entryX=0;entryY=0.5;entryDx=0;entryDy=0;startArrow=classic;startFill=1;" edge="1" parent="1" source="8ubV7WEkDpMe8fplMi-N-8" target="8ubV7WEkDpMe8fplMi-N-1">
          <mxGeometry relative="1" as="geometry" />
        </mxCell>
        <mxCell id="8ubV7WEkDpMe8fplMi-N-20" style="edgeStyle=orthogonalEdgeStyle;rounded=0;orthogonalLoop=1;jettySize=auto;html=1;exitX=0;exitY=0.5;exitDx=0;exitDy=0;startArrow=classic;startFill=1;" edge="1" parent="1" source="8ubV7WEkDpMe8fplMi-N-8" target="8ubV7WEkDpMe8fplMi-N-7">
          <mxGeometry relative="1" as="geometry" />
        </mxCell>
        <mxCell id="8ubV7WEkDpMe8fplMi-N-8" value="Ethernet&lt;br&gt;Switch" style="rounded=0;whiteSpace=wrap;html=1;" vertex="1" parent="1">
          <mxGeometry x="150" y="265" width="90" height="180" as="geometry" />
        </mxCell>
        <mxCell id="8ubV7WEkDpMe8fplMi-N-16" value="LCLS Timing" style="endArrow=classic;html=1;rounded=0;" edge="1" parent="1">
          <mxGeometry width="50" height="50" relative="1" as="geometry">
            <mxPoint x="590" y="500" as="sourcePoint" />
            <mxPoint x="590" y="430" as="targetPoint" />
          </mxGeometry>
        </mxCell>
        <mxCell id="8ubV7WEkDpMe8fplMi-N-18" style="edgeStyle=orthogonalEdgeStyle;rounded=0;orthogonalLoop=1;jettySize=auto;html=1;exitX=0;exitY=0.5;exitDx=0;exitDy=0;entryX=1;entryY=0.75;entryDx=0;entryDy=0;startArrow=classic;startFill=1;" edge="1" parent="1">
          <mxGeometry relative="1" as="geometry">
            <mxPoint x="520" y="410" as="sourcePoint" />
            <mxPoint x="240" y="410" as="targetPoint" />
          </mxGeometry>
        </mxCell>
        <mxCell id="8ubV7WEkDpMe8fplMi-N-21" value="&lt;font style=&quot;font-size: 8px;&quot;&gt;I2C&lt;br&gt;MCLK&lt;br&gt;BCR&lt;br&gt;PGOOD&lt;br&gt;RESET&lt;br&gt;&lt;/font&gt;" style="edgeStyle=orthogonalEdgeStyle;rounded=0;orthogonalLoop=1;jettySize=auto;html=1;exitX=1;exitY=0.5;exitDx=0;exitDy=0;entryX=0;entryY=0.5;entryDx=0;entryDy=0;startArrow=classic;startFill=1;" edge="1" parent="1" source="8ubV7WEkDpMe8fplMi-N-22" target="8ubV7WEkDpMe8fplMi-N-36">
          <mxGeometry x="-0.4286" y="-45" relative="1" as="geometry">
            <mxPoint x="-5" y="20" as="offset" />
          </mxGeometry>
        </mxCell>
        <mxCell id="8ubV7WEkDpMe8fplMi-N-22" value="KV260" style="rounded=0;whiteSpace=wrap;html=1;" vertex="1" parent="1">
          <mxGeometry x="310" y="550" width="120" height="60" as="geometry" />
        </mxCell>
        <mxCell id="8ubV7WEkDpMe8fplMi-N-23" style="edgeStyle=orthogonalEdgeStyle;rounded=0;orthogonalLoop=1;jettySize=auto;html=1;exitX=1;exitY=0.5;exitDx=0;exitDy=0;entryX=0;entryY=0.5;entryDx=0;entryDy=0;" edge="1" parent="1" source="8ubV7WEkDpMe8fplMi-N-24" target="8ubV7WEkDpMe8fplMi-N-26">
          <mxGeometry relative="1" as="geometry" />
        </mxCell>
        <mxCell id="8ubV7WEkDpMe8fplMi-N-24" value="V1 Backplane" style="rounded=0;whiteSpace=wrap;html=1;" vertex="1" parent="1">
          <mxGeometry x="552" y="550" width="120" height="60" as="geometry" />
        </mxCell>
        <mxCell id="8ubV7WEkDpMe8fplMi-N-25" value="2x 5 GHz Optical" style="edgeStyle=orthogonalEdgeStyle;rounded=0;orthogonalLoop=1;jettySize=auto;html=1;exitX=0.5;exitY=1;exitDx=0;exitDy=0;entryX=1;entryY=0.5;entryDx=0;entryDy=0;" edge="1" parent="1" source="8ubV7WEkDpMe8fplMi-N-26" target="8ubV7WEkDpMe8fplMi-N-29">
          <mxGeometry x="0.3396" y="10" relative="1" as="geometry">
            <mxPoint as="offset" />
          </mxGeometry>
        </mxCell>
        <mxCell id="8ubV7WEkDpMe8fplMi-N-26" value="8 channel RM" style="rounded=0;whiteSpace=wrap;html=1;" vertex="1" parent="1">
          <mxGeometry x="712" y="550" width="120" height="60" as="geometry" />
        </mxCell>
        <mxCell id="8ubV7WEkDpMe8fplMi-N-27" style="edgeStyle=orthogonalEdgeStyle;rounded=0;orthogonalLoop=1;jettySize=auto;html=1;exitX=0;exitY=0.5;exitDx=0;exitDy=0;entryX=1;entryY=0.5;entryDx=0;entryDy=0;startArrow=classic;startFill=1;" edge="1" parent="1" source="8ubV7WEkDpMe8fplMi-N-29" target="8ubV7WEkDpMe8fplMi-N-30">
          <mxGeometry relative="1" as="geometry">
            <mxPoint x="240" y="690" as="targetPoint" />
          </mxGeometry>
        </mxCell>
        <mxCell id="8ubV7WEkDpMe8fplMi-N-29" value="CAPTAN" style="rounded=0;whiteSpace=wrap;html=1;" vertex="1" parent="1">
          <mxGeometry x="520" y="660" width="120" height="60" as="geometry" />
        </mxCell>
        <mxCell id="8ubV7WEkDpMe8fplMi-N-30" value="Computer" style="rounded=0;whiteSpace=wrap;html=1;" vertex="1" parent="1">
          <mxGeometry x="30" y="555" width="90" height="180" as="geometry" />
        </mxCell>
        <mxCell id="8ubV7WEkDpMe8fplMi-N-31" style="edgeStyle=orthogonalEdgeStyle;rounded=0;orthogonalLoop=1;jettySize=auto;html=1;exitX=1;exitY=0.25;exitDx=0;exitDy=0;entryX=0;entryY=0.5;entryDx=0;entryDy=0;startArrow=classic;startFill=1;" edge="1" parent="1" source="8ubV7WEkDpMe8fplMi-N-30" target="8ubV7WEkDpMe8fplMi-N-22">
          <mxGeometry relative="1" as="geometry">
            <mxPoint x="240" y="600" as="sourcePoint" />
          </mxGeometry>
        </mxCell>
        <mxCell id="8ubV7WEkDpMe8fplMi-N-37" style="edgeStyle=orthogonalEdgeStyle;rounded=0;orthogonalLoop=1;jettySize=auto;html=1;exitX=1;exitY=0.5;exitDx=0;exitDy=0;entryX=0;entryY=0.5;entryDx=0;entryDy=0;startArrow=classic;startFill=1;" edge="1" parent="1" source="8ubV7WEkDpMe8fplMi-N-36" target="8ubV7WEkDpMe8fplMi-N-24">
          <mxGeometry relative="1" as="geometry">
            <Array as="points">
              <mxPoint x="540" y="540" />
              <mxPoint x="540" y="580" />
            </Array>
          </mxGeometry>
        </mxCell>
        <mxCell id="8ubV7WEkDpMe8fplMi-N-36" value="HDMI&lt;br&gt;Breakout" style="rounded=0;whiteSpace=wrap;html=1;" vertex="1" parent="1">
          <mxGeometry x="460" y="525" width="70" height="30" as="geometry" />
        </mxCell>
        <mxCell id="8ubV7WEkDpMe8fplMi-N-39" value="&lt;font style=&quot;font-size: 8px;&quot;&gt;Trigger&lt;br&gt;Spill&lt;/font&gt;" style="edgeStyle=orthogonalEdgeStyle;rounded=0;orthogonalLoop=1;jettySize=auto;html=1;exitX=1;exitY=0.75;exitDx=0;exitDy=0;entryX=1;entryY=0.25;entryDx=0;entryDy=0;" edge="1" parent="1" source="8ubV7WEkDpMe8fplMi-N-38" target="8ubV7WEkDpMe8fplMi-N-29">
          <mxGeometry x="0.7313" y="20" relative="1" as="geometry">
            <Array as="points">
              <mxPoint x="440" y="590" />
              <mxPoint x="440" y="640" />
              <mxPoint x="660" y="640" />
              <mxPoint x="660" y="675" />
            </Array>
            <mxPoint as="offset" />
          </mxGeometry>
        </mxCell>
        <mxCell id="8ubV7WEkDpMe8fplMi-N-38" value="&lt;font style=&quot;font-size: 8px;&quot;&gt;PMOD&lt;/font&gt;" style="rounded=0;whiteSpace=wrap;html=1;" vertex="1" parent="1">
          <mxGeometry x="400" y="560" width="30" height="40" as="geometry" />
        </mxCell>
        <mxCell id="8ubV7WEkDpMe8fplMi-N-40" style="edgeStyle=orthogonalEdgeStyle;rounded=0;orthogonalLoop=1;jettySize=auto;html=1;exitX=1;exitY=0.5;exitDx=0;exitDy=0;entryX=0;entryY=0.5;entryDx=0;entryDy=0;startArrow=classic;startFill=1;" edge="1" parent="1" source="8ubV7WEkDpMe8fplMi-N-41" target="8ubV7WEkDpMe8fplMi-N-43">
          <mxGeometry relative="1" as="geometry" />
        </mxCell>
        <mxCell id="8ubV7WEkDpMe8fplMi-N-41" value="KV260" style="rounded=0;whiteSpace=wrap;html=1;" vertex="1" parent="1">
          <mxGeometry x="360" y="810" width="120" height="60" as="geometry" />
        </mxCell>
        <mxCell id="8ubV7WEkDpMe8fplMi-N-42" style="edgeStyle=orthogonalEdgeStyle;rounded=0;orthogonalLoop=1;jettySize=auto;html=1;exitX=1;exitY=0.5;exitDx=0;exitDy=0;entryX=0;entryY=0.5;entryDx=0;entryDy=0;" edge="1" parent="1" source="8ubV7WEkDpMe8fplMi-N-43" target="8ubV7WEkDpMe8fplMi-N-45">
          <mxGeometry relative="1" as="geometry" />
        </mxCell>
        <mxCell id="8ubV7WEkDpMe8fplMi-N-43" value="V1 Backplane" style="rounded=0;whiteSpace=wrap;html=1;" vertex="1" parent="1">
          <mxGeometry x="552" y="810" width="120" height="60" as="geometry" />
        </mxCell>
        <mxCell id="8ubV7WEkDpMe8fplMi-N-44" value="2x 5 GHz Optical" style="edgeStyle=orthogonalEdgeStyle;rounded=0;orthogonalLoop=1;jettySize=auto;html=1;exitX=0.5;exitY=1;exitDx=0;exitDy=0;entryX=1;entryY=0.5;entryDx=0;entryDy=0;" edge="1" parent="1" source="8ubV7WEkDpMe8fplMi-N-45" target="8ubV7WEkDpMe8fplMi-N-48">
          <mxGeometry x="0.3396" y="10" relative="1" as="geometry">
            <mxPoint as="offset" />
          </mxGeometry>
        </mxCell>
        <mxCell id="8ubV7WEkDpMe8fplMi-N-45" value="8 channel RM" style="rounded=0;whiteSpace=wrap;html=1;" vertex="1" parent="1">
          <mxGeometry x="712" y="810" width="120" height="60" as="geometry" />
        </mxCell>
        <mxCell id="8ubV7WEkDpMe8fplMi-N-46" style="edgeStyle=orthogonalEdgeStyle;rounded=0;orthogonalLoop=1;jettySize=auto;html=1;exitX=0;exitY=0.5;exitDx=0;exitDy=0;entryX=1;entryY=0.75;entryDx=0;entryDy=0;startArrow=classic;startFill=1;" edge="1" parent="1" source="8ubV7WEkDpMe8fplMi-N-48" target="8ubV7WEkDpMe8fplMi-N-52">
          <mxGeometry relative="1" as="geometry" />
        </mxCell>
        <mxCell id="8ubV7WEkDpMe8fplMi-N-48" value="APd1" style="rounded=0;whiteSpace=wrap;html=1;" vertex="1" parent="1">
          <mxGeometry x="520" y="920" width="120" height="60" as="geometry" />
        </mxCell>
        <mxCell id="8ubV7WEkDpMe8fplMi-N-49" value="Computer" style="rounded=0;whiteSpace=wrap;html=1;" vertex="1" parent="1">
          <mxGeometry x="30" y="815" width="90" height="180" as="geometry" />
        </mxCell>
        <mxCell id="8ubV7WEkDpMe8fplMi-N-50" style="edgeStyle=orthogonalEdgeStyle;rounded=0;orthogonalLoop=1;jettySize=auto;html=1;exitX=1;exitY=0.25;exitDx=0;exitDy=0;entryX=0;entryY=0.5;entryDx=0;entryDy=0;startArrow=classic;startFill=1;" edge="1" parent="1" source="8ubV7WEkDpMe8fplMi-N-52" target="8ubV7WEkDpMe8fplMi-N-41">
          <mxGeometry relative="1" as="geometry" />
        </mxCell>
        <mxCell id="8ubV7WEkDpMe8fplMi-N-51" style="edgeStyle=orthogonalEdgeStyle;rounded=0;orthogonalLoop=1;jettySize=auto;html=1;exitX=0;exitY=0.5;exitDx=0;exitDy=0;startArrow=classic;startFill=1;" edge="1" parent="1" source="8ubV7WEkDpMe8fplMi-N-52" target="8ubV7WEkDpMe8fplMi-N-49">
          <mxGeometry relative="1" as="geometry" />
        </mxCell>
        <mxCell id="8ubV7WEkDpMe8fplMi-N-52" value="Ethernet&lt;br&gt;Switch" style="rounded=0;whiteSpace=wrap;html=1;" vertex="1" parent="1">
          <mxGeometry x="150" y="815" width="90" height="180" as="geometry" />
        </mxCell>
        <mxCell id="8ubV7WEkDpMe8fplMi-N-53" value="LCLS Timing?" style="endArrow=classic;html=1;rounded=0;" edge="1" parent="1">
          <mxGeometry width="50" height="50" relative="1" as="geometry">
            <mxPoint x="590" y="1050" as="sourcePoint" />
            <mxPoint x="590" y="980" as="targetPoint" />
          </mxGeometry>
        </mxCell>
        <mxCell id="8ubV7WEkDpMe8fplMi-N-54" style="edgeStyle=orthogonalEdgeStyle;rounded=0;orthogonalLoop=1;jettySize=auto;html=1;exitX=0;exitY=0.5;exitDx=0;exitDy=0;entryX=1;entryY=0.75;entryDx=0;entryDy=0;startArrow=classic;startFill=1;" edge="1" parent="1">
          <mxGeometry relative="1" as="geometry">
            <mxPoint x="520" y="960" as="sourcePoint" />
            <mxPoint x="240" y="960" as="targetPoint" />
          </mxGeometry>
        </mxCell>
        <mxCell id="8ubV7WEkDpMe8fplMi-N-55" value="Note: Free running clock and BCR&amp;nbsp;" style="text;html=1;align=center;verticalAlign=middle;whiteSpace=wrap;rounded=0;" vertex="1" parent="1">
          <mxGeometry x="160" y="515" width="120" height="40" as="geometry" />
        </mxCell>
        <mxCell id="8ubV7WEkDpMe8fplMi-N-56" value="Q: how do we get a clock and BCR to KV260?" style="text;html=1;align=center;verticalAlign=middle;whiteSpace=wrap;rounded=0;" vertex="1" parent="1">
          <mxGeometry x="240" y="770" width="160" height="40" as="geometry" />
        </mxCell>
      </root>
    </mxGraphModel>
  </diagram>
</mxfile>
